<svg xmlns="http://www.w3.org/2000/svg" viewBox="0 0 24 24">
<defs>
  <!-- <linearGradient id="logoGradient" x1="100%" x2="0%" y1="0%"  y2="100%">
    <stop offset="0%"/>
    <stop offset="25%"/>
    <stop offset="50%"/>
    <stop offset="100%"/>
  </linearGradient> -->
  <linearGradient id="logoGradient" x1="0%" y1="0%" x2="100%" y2="100%" > 
            
    <stop offset="0%" stop-color="#7A5FFF">
        <animate attributeName="stop-color" values="#7A5FFF; #01FF89; #7A5FFF" dur="4s" repeatCount="indefinite"></animate>
    </stop>   
    <stop offset="100%" stop-color="#01FF89">
        <animate attributeName="stop-color" values="#01FF89; #7A5FFF; #01FF89" dur="4s" repeatCount="indefinite"></animate>
    </stop>

  </linearGradient> 


</defs>
<path fill="url(#logoGradient)" d="M19,3H5A2,2 0 0,0 3,5V19A2,2 0 0,0 5,21H19A2,2 0 0,0 21,19V5A2,2 0 0,0 19,3M19,5V19H5V5H19M10,17L6,13L7.41,11.58L10,14.17L16.59,7.58L18,9" /></svg>